<svg width="315" height="94" viewBox="0 0 315 94" fill="none" xmlns="http://www.w3.org/2000/svg">
<g clip-path="url(#clip0_41_7025)">
<path d="M303.403 93.6672H11.5874C10.0603 93.6629 8.54896 93.3577 7.13988 92.7689C5.7308 92.1801 4.4516 91.3193 3.37544 90.2358C2.29927 89.1522 1.44724 87.8672 0.868071 86.4541C0.288902 85.0411 -0.00604523 83.5277 9.39001e-05 82.0005V12.0006C-0.00604523 10.4734 0.288902 8.96005 0.868071 7.54698C1.44724 6.13392 2.29927 4.84888 3.37544 3.76534C4.4516 2.6818 5.7308 1.82103 7.13988 1.23223C8.54896 0.643435 10.0603 0.338168 11.5874 0.333887H303.403C304.938 0.314879 306.46 0.604187 307.88 1.18465C309.3 1.76511 310.589 2.62489 311.671 3.713C312.752 4.80111 313.604 6.09537 314.176 7.51899C314.748 8.94262 315.028 10.4666 315 12.0006V82.0005C315.051 83.5404 314.786 85.0744 314.222 86.5083C313.659 87.9421 312.807 89.2454 311.721 90.3382C310.635 91.4309 309.337 92.2899 307.906 92.8624C306.476 93.4349 304.944 93.7088 303.403 93.6672Z" fill="black"/>
<path d="M303.403 2.20074C305.987 2.23545 308.453 3.28085 310.275 5.1128C312.096 6.94475 313.128 9.41744 313.147 12.0007V82.0007C313.128 84.584 312.096 87.0567 310.275 88.8887C308.453 90.7206 305.987 91.766 303.403 91.8007H11.5874C9.00428 91.766 6.53754 90.7206 4.71606 88.8887C2.89457 87.0567 1.86333 84.584 1.84343 82.0007V12.0007C1.86333 9.41744 2.89457 6.94475 4.71606 5.1128C6.53754 3.28085 9.00428 2.23545 11.5874 2.20074H303.403ZM303.403 0.334078H11.5874C8.51572 0.382659 5.58466 1.62989 3.41979 3.80958C1.25492 5.98927 0.0277153 8.92878 9.39002e-05 12.0007V82.0007C-0.00604523 83.5279 0.288902 85.0412 0.868071 86.4543C1.44724 87.8674 2.29927 89.1524 3.37544 90.236C4.4516 91.3195 5.7308 92.1803 7.13988 92.7691C8.54896 93.3579 10.0603 93.6631 11.5874 93.6674H303.403C304.938 93.6864 306.46 93.3971 307.88 92.8166C309.3 92.2362 310.589 91.3764 311.671 90.2883C312.752 89.2002 313.604 87.9059 314.176 86.4823C314.748 85.0587 315.028 83.5347 315 82.0007V12.0007C315.032 10.4667 314.754 8.94207 314.184 7.51761C313.614 6.09315 312.763 4.79802 311.681 3.70938C310.6 2.62075 309.311 1.76087 307.89 1.18099C306.47 0.601114 304.947 0.313089 303.413 0.334078H303.403Z" fill="#A6A6A6"/>
<path d="M106.167 23.1993C106.22 24.0468 106.103 24.8964 105.823 25.698C105.542 26.4995 105.104 27.2367 104.534 27.866C103.522 28.8851 102.23 29.5801 100.822 29.8623C99.4137 30.1445 97.9535 30.0012 96.6272 29.4506C95.3008 28.9001 94.1684 27.9672 93.3741 26.7708C92.5798 25.5744 92.1596 24.1687 92.167 22.7326C92.1586 21.7804 92.34 20.836 92.7005 19.9546C93.061 19.0733 93.5935 18.2725 94.2669 17.5992C94.9402 16.9258 95.741 16.3933 96.6224 16.0328C97.5038 15.6723 98.4481 15.4909 99.4004 15.4993C100.376 15.5096 101.335 15.7494 102.2 16.1993C103.033 16.5476 103.758 17.1114 104.3 17.8326L103.134 18.9993C102.692 18.443 102.121 18.0033 101.47 17.7186C100.819 17.4339 100.109 17.3128 99.4004 17.366C98.6948 17.3364 97.9919 17.4682 97.3449 17.7512C96.698 18.0342 96.1242 18.4611 95.667 18.9993C95.1062 19.4888 94.6668 20.102 94.3833 20.7903C94.0999 21.4787 93.9802 22.2235 94.0337 22.966C93.9802 23.7085 94.0999 24.4533 94.3833 25.1416C94.6668 25.83 95.1062 26.4431 95.667 26.9326C96.6832 27.8953 98.0036 28.473 99.4004 28.566C100.14 28.597 100.878 28.467 101.563 28.185C102.248 27.903 102.863 27.4757 103.367 26.9326C103.74 26.5688 104.036 26.1331 104.237 25.6519C104.437 25.1707 104.538 24.6539 104.534 24.1326H99.4004V22.266H106.167V23.1993Z" fill="white" stroke="white" stroke-width="0.466667" stroke-miterlimit="10"/>
<path d="M116.9 17.3658H110.6V21.7991H116.433V23.4324H110.6V27.8658H116.9V29.7324H108.733V15.7324H116.9V17.3658Z" fill="white" stroke="white" stroke-width="0.466667" stroke-miterlimit="10"/>
<path d="M124.6 29.7324H122.733V17.3658H118.767V15.7324H128.567V17.3658H124.6V29.7324Z" fill="white" stroke="white" stroke-width="0.466667" stroke-miterlimit="10"/>
<path d="M135.333 29.7324V15.7324H137.2V29.7324H135.333Z" fill="white" stroke="white" stroke-width="0.466667" stroke-miterlimit="10"/>
<path d="M145.133 29.7324H143.267V17.3658H139.3V15.7324H148.867V17.3658H144.9V29.7324H145.133Z" fill="white" stroke="white" stroke-width="0.466667" stroke-miterlimit="10"/>
<path d="M167.3 27.8657C166.289 28.8848 164.996 29.5798 163.588 29.862C162.18 30.1442 160.72 30.0009 159.394 29.4504C158.067 28.8998 156.935 27.9669 156.141 26.7705C155.346 25.5741 154.926 24.1684 154.934 22.7324C154.934 20.814 155.696 18.9741 157.052 17.6176C158.409 16.2611 160.248 15.499 162.167 15.499C164.085 15.499 165.925 16.2611 167.282 17.6176C168.638 18.9741 169.4 20.814 169.4 22.7324C169.427 23.687 169.254 24.6368 168.892 25.5207C168.531 26.4047 167.988 27.2034 167.3 27.8657ZM158.434 26.699C159.423 27.7008 160.759 28.2853 162.167 28.3324C162.872 28.3619 163.575 28.2301 164.222 27.9471C164.869 27.6641 165.443 27.2372 165.9 26.699C166.947 25.6441 167.534 24.2183 167.534 22.7324C167.587 21.9899 167.467 21.2451 167.184 20.5567C166.901 19.8683 166.461 19.2552 165.9 18.7657C164.91 17.7639 163.574 17.1794 162.167 17.1324C161.461 17.1028 160.758 17.2346 160.111 17.5176C159.465 17.8006 158.891 18.2275 158.434 18.7657C157.387 19.8206 156.8 21.2464 156.8 22.7324C156.747 23.4749 156.866 24.2196 157.15 24.908C157.433 25.5964 157.873 26.2095 158.434 26.699Z" fill="white" stroke="white" stroke-width="0.466667" stroke-miterlimit="10"/>
<path d="M171.967 29.7324V15.7324H174.067L180.833 26.6991V15.7324H182.7V29.7324H180.833L173.6 18.2991V29.7324H171.967Z" fill="white" stroke="white" stroke-width="0.466667" stroke-miterlimit="10"/>
<path d="M154.467 50.2669C153.141 50.2372 151.823 50.4765 150.592 50.9702C149.361 51.4639 148.244 52.2019 147.306 53.1396C146.368 54.0772 145.63 55.1951 145.137 56.4258C144.643 57.6565 144.404 58.9745 144.433 60.3002C144.423 61.6206 144.676 62.9297 145.177 64.1515C145.677 65.3733 146.416 66.4833 147.35 67.417C148.283 68.3507 149.393 69.0893 150.615 69.59C151.837 70.0907 153.146 70.3435 154.467 70.3335C155.792 70.3632 157.11 70.1239 158.341 69.6302C159.572 69.1365 160.69 68.3985 161.627 67.4609C162.565 66.5232 163.303 65.4053 163.797 64.1746C164.29 62.9439 164.53 61.6259 164.5 60.3002C164.549 58.9693 164.324 57.6426 163.837 56.403C163.35 55.1633 162.613 54.0374 161.671 53.0957C160.729 52.154 159.603 51.4167 158.364 50.93C157.124 50.4432 155.797 50.2175 154.467 50.2669ZM154.467 66.1335C152.94 66.0137 151.514 65.3225 150.475 64.198C149.435 63.0735 148.857 61.5984 148.857 60.0669C148.857 58.5354 149.435 57.0602 150.475 55.9357C151.514 54.8112 152.94 54.1201 154.467 54.0002C155.241 54.0051 156.005 54.1691 156.714 54.4818C157.422 54.7945 158.058 55.2494 158.583 55.8182C159.108 56.3871 159.511 57.0577 159.766 57.7885C160.021 58.5194 160.123 59.2949 160.067 60.0669C160.103 60.8344 159.987 61.6016 159.725 62.3238C159.462 63.0459 159.059 63.7087 158.537 64.2733C158.016 64.8379 157.388 65.2932 156.689 65.6126C155.99 65.9319 155.235 66.109 154.467 66.1335ZM132.767 50.2669C131.441 50.2372 130.123 50.4765 128.892 50.9702C127.661 51.4639 126.544 52.2019 125.606 53.1396C124.668 54.0772 123.93 55.1951 123.437 56.4258C122.943 57.6565 122.704 58.9745 122.733 60.3002C122.723 61.6206 122.976 62.9297 123.477 64.1515C123.977 65.3733 124.716 66.4833 125.65 67.417C126.583 68.3507 127.693 69.0893 128.915 69.59C130.137 70.0907 131.446 70.3435 132.767 70.3335C134.092 70.3632 135.41 70.1239 136.641 69.6302C137.872 69.1365 138.99 68.3985 139.927 67.4609C140.865 66.5232 141.603 65.4053 142.097 64.1746C142.59 62.9439 142.83 61.6259 142.8 60.3002C142.849 58.9693 142.624 57.6426 142.137 56.403C141.65 55.1633 140.913 54.0374 139.971 53.0957C139.029 52.154 137.903 51.4167 136.664 50.93C135.424 50.4432 134.097 50.2175 132.767 50.2669ZM132.767 66.1335C131.24 66.0137 129.814 65.3225 128.775 64.198C127.735 63.0735 127.157 61.5984 127.157 60.0669C127.157 58.5354 127.735 57.0602 128.775 55.9357C129.814 54.8112 131.24 54.1201 132.767 54.0002C133.541 54.0051 134.305 54.1691 135.014 54.4818C135.722 54.7945 136.358 55.2494 136.883 55.8182C137.408 56.3871 137.811 57.0577 138.066 57.7885C138.321 58.5194 138.423 59.2949 138.367 60.0669C138.403 60.8344 138.287 61.6016 138.025 62.3238C137.762 63.0459 137.359 63.7087 136.837 64.2733C136.316 64.8379 135.688 65.2932 134.989 65.6126C134.29 65.9319 133.535 66.109 132.767 66.1335ZM106.867 53.3002V57.5002H116.9C116.755 59.5025 115.932 61.3955 114.567 62.8669C113.562 63.8761 112.359 64.6666 111.034 65.1886C109.709 65.7106 108.29 65.9529 106.867 65.9002C105.403 65.9147 103.951 65.6332 102.598 65.0725C101.246 64.5118 100.021 63.6836 98.9962 62.6375C97.9719 61.5914 97.1696 60.349 96.6375 58.985C96.1054 57.621 95.8545 56.1636 95.8999 54.7002C95.8742 53.2419 96.1386 51.7931 96.6778 50.438C97.2169 49.0828 98.02 47.8483 99.0404 46.8062C100.061 45.7641 101.278 44.9352 102.622 44.3676C103.965 43.8001 105.408 43.5052 106.867 43.5002C109.719 43.5273 112.462 44.6075 114.567 46.5335L117.6 43.5002C114.785 40.7795 111.015 39.2716 107.1 39.3002C103.002 39.3272 99.0765 40.9511 96.1572 43.8268C93.2379 46.7025 91.5552 50.6034 91.4666 54.7002C91.5552 58.7971 93.2379 62.6979 96.1572 65.5736C99.0765 68.4493 103.002 70.0732 107.1 70.1002C109.107 70.2116 111.113 69.8711 112.971 69.1038C114.828 68.3365 116.49 67.162 117.833 65.6669C120.296 63.0047 121.634 59.493 121.567 55.8669C121.616 55.0045 121.537 54.1396 121.333 53.3002H106.867ZM212.8 56.5669C212.227 54.7749 211.11 53.2057 209.605 52.0768C208.1 50.948 206.281 50.3154 204.4 50.2669C203.116 50.2729 201.847 50.5419 200.671 51.0574C199.495 51.5728 198.437 52.3238 197.562 53.264C196.688 54.2041 196.015 55.3135 195.586 56.5237C195.157 57.7338 194.98 59.0191 195.067 60.3002C195.031 61.6079 195.258 62.9095 195.735 64.1277C196.211 65.346 196.928 66.4559 197.842 67.3918C198.756 68.3277 199.849 69.0703 201.056 69.5756C202.262 70.081 203.558 70.3387 204.867 70.3335C206.492 70.3494 208.095 69.9507 209.524 69.175C210.953 68.3993 212.161 67.2722 213.033 65.9002L209.767 63.5669C209.264 64.4197 208.548 65.1266 207.688 65.6177C206.829 66.1087 205.856 66.367 204.867 66.3669C203.838 66.4194 202.818 66.1573 201.943 65.6153C201.067 65.0734 200.378 64.2774 199.967 63.3335L213.267 57.7335L212.8 56.5669ZM199.267 59.8335C199.218 58.3902 199.722 56.9828 200.676 55.8987C201.63 54.8146 202.962 54.1355 204.4 54.0002C205.155 53.9752 205.902 54.1577 206.56 54.528C207.219 54.8983 207.763 55.4421 208.133 56.1002L199.267 59.8335ZM188.3 69.4002H192.733V40.2335H188.3V69.4002ZM181.3 52.3669C179.889 50.9117 177.96 50.073 175.933 50.0335C173.354 50.1536 170.92 51.2635 169.138 53.1323C167.357 55.001 166.364 57.4848 166.367 60.0669C166.348 61.3393 166.582 62.6027 167.053 63.7847C167.525 64.9667 168.225 66.0439 169.114 66.9545C170.003 67.8651 171.063 68.5911 172.233 69.0909C173.403 69.5907 174.661 69.8544 175.933 69.8669C176.907 69.8744 177.871 69.6696 178.757 69.2666C179.644 68.8636 180.432 68.2722 181.067 67.5335H181.3V68.9335C181.431 70.2217 181.086 71.5134 180.331 72.565C179.576 73.6166 178.462 74.3556 177.199 74.6425C175.936 74.9295 174.612 74.7447 173.477 74.1228C172.341 73.501 171.472 72.4852 171.033 71.2669L167.3 72.9002C168.043 74.6346 169.28 76.1123 170.857 77.1494C172.433 78.1866 174.28 78.7374 176.167 78.7335C181.3 78.7335 185.5 75.7002 185.5 68.4669V50.7335H181.3V52.3669ZM176.167 66.1335C174.64 66.0137 173.214 65.3225 172.175 64.198C171.135 63.0735 170.557 61.5984 170.557 60.0669C170.557 58.5354 171.135 57.0602 172.175 55.9357C173.214 54.8112 174.64 54.1201 176.167 54.0002C176.922 54.031 177.664 54.2143 178.348 54.539C179.031 54.8637 179.641 55.3232 180.143 55.8899C180.644 56.4565 181.026 57.1186 181.265 57.8364C181.503 58.5542 181.595 59.3129 181.533 60.0669C181.595 60.8209 181.503 61.5796 181.265 62.2974C181.026 63.0152 180.644 63.6773 180.143 64.2439C179.641 64.8105 179.031 65.27 178.348 65.5947C177.664 65.9194 176.922 66.1027 176.167 66.1335ZM233.1 40.2335H222.6V69.4002H227.033V58.4335H233.1C235.513 58.4335 237.828 57.4748 239.535 55.7682C241.241 54.0616 242.2 51.747 242.2 49.3335C242.2 46.9201 241.241 44.6054 239.535 42.8989C237.828 41.1923 235.513 40.2335 233.1 40.2335ZM233.333 54.2335H227.033V44.2002H233.333C234.655 44.1988 235.927 44.7075 236.883 45.6203C237.839 46.5331 238.406 47.7796 238.467 49.1002C238.415 50.4452 237.858 51.7213 236.906 52.6731C235.954 53.6249 234.678 54.1822 233.333 54.2335ZM260.167 50.0335C258.585 49.907 257.003 50.263 255.628 51.0546C254.253 51.8461 253.151 53.0359 252.467 54.4669L256.433 56.1002C256.821 55.4042 257.402 54.8355 258.106 54.4628C258.81 54.0901 259.606 53.9294 260.4 54.0002C261.506 53.917 262.602 54.2558 263.468 54.9486C264.334 55.6413 264.905 56.6364 265.067 57.7335V57.9669C263.71 57.2124 262.185 56.8112 260.633 56.8002C256.433 56.8002 252.233 59.1335 252.233 63.3335C252.272 64.2399 252.491 65.1295 252.876 65.9505C253.262 66.7715 253.808 67.5075 254.481 68.1156C255.154 68.7237 255.942 69.1917 256.798 69.4923C257.654 69.793 258.561 69.9203 259.467 69.8669C260.559 69.9033 261.644 69.6663 262.622 69.1773C263.6 68.6884 264.44 67.9629 265.067 67.0669H265.3V69.4002H269.5V58.2002C269.329 55.8857 268.254 53.7313 266.508 52.203C264.761 50.6748 262.483 49.8954 260.167 50.0335ZM259.7 66.1335C258.3 66.1335 256.2 65.4335 256.2 63.5669C256.2 61.2335 258.767 60.5335 260.867 60.5335C262.243 60.5381 263.599 60.8574 264.833 61.4669C264.656 62.7211 264.045 63.8738 263.108 64.7259C262.171 65.578 260.965 66.0759 259.7 66.1335ZM284.2 50.7335L279.3 63.3335H279.067L273.933 50.7335H269.267L276.967 68.4669L272.533 78.2669H276.967L288.867 50.7335H284.2ZM245 69.4002H249.433V40.2335H245V69.4002Z" fill="white"/>
<path d="M36.1665 22.7334C35.8649 23.1276 35.6471 23.5794 35.5268 24.061C35.4064 24.5425 35.3859 25.0436 35.4665 25.5334V68.7001C35.489 69.706 35.8142 70.6818 36.3999 71.5001L36.6332 71.7334L60.6665 47.2334V46.7667L36.1665 22.7334Z" fill="url(#paint0_linear_41_7025)"/>
<path d="M68.3664 55.3997L60.4331 47.4663V46.7663L68.3664 38.833L68.5998 39.0663L78.1664 44.433C80.9664 46.0663 80.9664 48.633 78.1664 50.033L68.3664 55.3997Z" fill="url(#paint1_linear_41_7025)"/>
<path d="M68.5996 55.1667L60.4329 47L36.1663 71.5C37.0996 72.4333 38.4996 72.4333 40.3663 71.7333L68.5996 55.1667Z" fill="url(#paint2_linear_41_7025)"/>
<path d="M68.5997 38.8336L40.133 22.7336C39.5497 22.3006 38.8326 22.0867 38.1073 22.1294C37.3821 22.172 36.695 22.4685 36.1664 22.9669L60.4331 47.0003L68.5997 38.8336Z" fill="url(#paint3_linear_41_7025)"/>
</g>
<defs>
<linearGradient id="paint0_linear_41_7025" x1="58.268" y1="767.043" x2="19.5392" y2="777.313" gradientUnits="userSpaceOnUse">
<stop stop-color="#00A0FF"/>
<stop offset="0.007" stop-color="#00A1FF"/>
<stop offset="0.26" stop-color="#00BEFF"/>
<stop offset="0.512" stop-color="#00D2FF"/>
<stop offset="0.76" stop-color="#00DFFF"/>
<stop offset="1" stop-color="#00E3FF"/>
</linearGradient>
<linearGradient id="paint1_linear_41_7025" x1="81.7341" y1="789.154" x2="34.5704" y2="789.154" gradientUnits="userSpaceOnUse">
<stop stop-color="#FFE000"/>
<stop offset="0.409" stop-color="#FFBD00"/>
<stop offset="0.775" stop-color="#FFA500"/>
<stop offset="1" stop-color="#FF9C00"/>
</linearGradient>
<linearGradient id="paint2_linear_41_7025" x1="64.1563" y1="793.498" x2="32.6048" y2="845.615" gradientUnits="userSpaceOnUse">
<stop stop-color="#FF3A44"/>
<stop offset="1" stop-color="#C31162"/>
</linearGradient>
<linearGradient id="paint3_linear_41_7025" x1="29.9392" y1="750.924" x2="43.6932" y2="774.315" gradientUnits="userSpaceOnUse">
<stop stop-color="#32A071"/>
<stop offset="0.068" stop-color="#2DA771"/>
<stop offset="0.476" stop-color="#15CF74"/>
<stop offset="0.801" stop-color="#06E775"/>
<stop offset="1" stop-color="#00F076"/>
</linearGradient>
<clipPath id="clip0_41_7025">
<rect width="315" height="93.3333" fill="white" transform="translate(0 0.333008)"/>
</clipPath>
</defs>
</svg>
