<svg width="315" height="94" viewBox="0 0 315 94" fill="none" xmlns="http://www.w3.org/2000/svg">
<g clip-path="url(#clip0_41_6992)">
<path d="M303.793 93.3324H11.0343C4.95133 93.3324 0 88.367 0 82.2887V11.0264C0 4.94569 4.95133 -0.000976562 11.0343 -0.000976562H303.793C309.874 -0.000976562 315 4.94569 315 11.0264V82.2887C315 88.367 309.874 93.3324 303.793 93.3324Z" fill="#A6A6A6"/>
<path d="M312.741 82.2905C312.741 87.2279 308.742 91.2272 303.795 91.2272H11.034C6.08963 91.2272 2.07629 87.2279 2.07629 82.2905V11.0235C2.07629 6.08853 6.08963 2.0752 11.034 2.0752H303.793C308.742 2.0752 312.739 6.08853 312.739 11.0235L312.741 82.2905Z" fill="black"/>
<path d="M70.2981 46.1615C70.2305 38.6412 76.4558 34.9825 76.7405 34.8122C73.2148 29.6718 67.7501 28.9695 65.8298 28.9135C61.2401 28.4305 56.7881 31.6598 54.4501 31.6598C52.0655 31.6598 48.4651 28.9602 44.5848 29.0395C39.5915 29.1165 34.9201 32.0075 32.3581 36.4968C27.0708 45.6505 31.0141 59.1022 36.0798 66.5012C38.6138 70.1248 41.5748 74.1708 45.4505 74.0285C49.2421 73.8722 50.6585 71.6112 55.2341 71.6112C59.7678 71.6112 61.0978 74.0285 65.0505 73.9375C69.1198 73.8722 71.6818 70.2975 74.1271 66.6412C77.0555 62.4878 78.2315 58.3975 78.2781 58.1875C78.1825 58.1548 70.3751 55.1752 70.2981 46.1615Z" fill="white"/>
<path d="M62.8314 24.0459C64.8707 21.4955 66.266 18.0259 65.8787 14.5049C62.927 14.6355 59.2357 16.5466 57.11 19.0409C55.2294 21.2389 53.5494 24.8415 53.9834 28.2295C57.299 28.4769 60.7034 26.5565 62.8314 24.0459Z" fill="white"/>
<path d="M125.172 73.509H119.873L116.97 64.388H106.881L104.116 73.509H98.957L108.953 42.457H115.127L125.172 73.509ZM116.095 60.5614L113.47 52.453C113.193 51.6247 112.672 49.674 111.905 46.6034H111.811C111.506 47.924 111.013 49.8747 110.337 52.453L107.758 60.5614H116.095Z" fill="white"/>
<path d="M150.878 62.0379C150.878 65.8459 149.849 68.8559 147.791 71.0655C145.948 73.0325 143.659 74.0149 140.927 74.0149C137.977 74.0149 135.859 72.9555 134.568 70.8369H134.475V82.6319H129.5V58.4889C129.5 56.0949 129.437 53.6379 129.316 51.1179H133.691L133.969 54.6669H134.062C135.721 51.9929 138.239 50.6582 141.617 50.6582C144.259 50.6582 146.464 51.7012 148.228 53.7895C149.996 55.8802 150.878 58.6289 150.878 62.0379ZM145.81 62.2199C145.81 60.0405 145.32 58.2439 144.336 56.8299C143.26 55.3552 141.816 54.6179 140.005 54.6179C138.778 54.6179 137.662 55.0285 136.666 55.8382C135.667 56.6549 135.014 57.7212 134.708 59.0419C134.554 59.6579 134.477 60.1619 134.477 60.5585V64.2919C134.477 65.9205 134.977 67.2949 135.975 68.4172C136.974 69.5395 138.271 70.0995 139.867 70.0995C141.741 70.0995 143.199 69.3762 144.242 67.9342C145.288 66.4899 145.81 64.5859 145.81 62.2199Z" fill="white"/>
<path d="M176.631 62.0379C176.631 65.8459 175.602 68.8559 173.542 71.0655C171.701 73.0325 169.412 74.0149 166.679 74.0149C163.73 74.0149 161.611 72.9555 160.323 70.8369H160.23V82.6319H155.255V58.4889C155.255 56.0949 155.192 53.6379 155.071 51.1179H159.446L159.724 54.6669H159.817C161.474 51.9929 163.991 50.6582 167.372 50.6582C170.011 50.6582 172.216 51.7012 173.985 53.7895C175.747 55.8802 176.631 58.6289 176.631 62.0379ZM171.563 62.2199C171.563 60.0405 171.071 58.2439 170.086 56.8299C169.01 55.3552 167.571 54.6179 165.758 54.6179C164.528 54.6179 163.415 55.0285 162.416 55.8382C161.418 56.6549 160.767 57.7212 160.461 59.0419C160.309 59.6579 160.23 60.1619 160.23 60.5585V64.2919C160.23 65.9205 160.729 67.2949 161.723 68.4172C162.722 69.5372 164.019 70.0995 165.62 70.0995C167.494 70.0995 168.952 69.3762 169.995 67.9342C171.04 66.4899 171.563 64.5859 171.563 62.2199Z" fill="white"/>
<path d="M205.425 64.8C205.425 67.4413 204.508 69.5903 202.667 71.2493C200.644 73.0623 197.828 73.9676 194.209 73.9676C190.867 73.9676 188.188 73.3236 186.161 72.0333L187.314 67.887C189.498 69.2076 191.894 69.8703 194.505 69.8703C196.379 69.8703 197.837 69.4456 198.885 68.601C199.928 67.7563 200.448 66.6223 200.448 65.2083C200.448 63.9483 200.018 62.8866 199.157 62.0256C198.301 61.1646 196.871 60.3643 194.873 59.6246C189.437 57.597 186.721 54.6266 186.721 50.7206C186.721 48.168 187.673 46.075 189.579 44.4463C191.479 42.8153 194.012 42.001 197.181 42.001C200.007 42.001 202.354 42.4933 204.228 43.4756L202.984 47.531C201.234 46.579 199.255 46.103 197.041 46.103C195.291 46.103 193.924 46.5346 192.944 47.3933C192.116 48.161 191.7 49.0966 191.7 50.205C191.7 51.4323 192.174 52.4473 193.126 53.2453C193.954 53.9826 195.459 54.7806 197.643 55.6416C200.315 56.7173 202.277 57.975 203.54 59.417C204.797 60.8543 205.425 62.6533 205.425 64.8Z" fill="white"/>
<path d="M221.872 54.8494H216.389V65.7204C216.389 68.4854 217.355 69.8668 219.292 69.8668C220.181 69.8668 220.918 69.7898 221.501 69.6358L221.639 73.4134C220.659 73.7798 219.369 73.9641 217.77 73.9641C215.806 73.9641 214.27 73.3644 213.162 72.1674C212.058 70.9681 211.503 68.9568 211.503 66.1311V54.8448H208.236V51.1114H211.503V47.0118L216.389 45.5371V51.1114H221.872V54.8494Z" fill="white"/>
<path d="M246.613 62.1285C246.613 65.5702 245.628 68.3958 243.663 70.6055C241.603 72.8805 238.868 74.0145 235.459 74.0145C232.174 74.0145 229.558 72.9248 227.608 70.7455C225.657 68.5662 224.682 65.8152 224.682 62.4995C224.682 59.0298 225.685 56.1878 227.699 53.9782C229.708 51.7662 232.419 50.6602 235.828 50.6602C239.113 50.6602 241.757 51.7498 243.752 53.9315C245.661 56.0478 246.613 58.7802 246.613 62.1285ZM241.451 62.2895C241.451 60.2245 241.01 58.4535 240.117 56.9765C239.074 55.1892 237.583 54.2978 235.651 54.2978C233.651 54.2978 232.132 55.1915 231.089 56.9765C230.195 58.4558 229.754 60.2548 229.754 62.3828C229.754 64.4478 230.195 66.2188 231.089 67.6935C232.165 69.4808 233.667 70.3722 235.606 70.3722C237.506 70.3722 238.997 69.4622 240.072 67.6468C240.989 66.1418 241.451 64.3522 241.451 62.2895Z" fill="white"/>
<path d="M262.783 55.4929C262.29 55.4019 261.765 55.3552 261.215 55.3552C259.465 55.3552 258.111 56.0155 257.159 57.3385C256.331 58.5052 255.916 59.9799 255.916 61.7602V73.5085H250.943L250.99 58.1692C250.99 55.5885 250.927 53.2389 250.803 51.1202H255.136L255.318 55.4042H255.456C255.981 53.9319 256.809 52.7465 257.943 51.8575C259.052 51.0572 260.249 50.6582 261.539 50.6582C261.999 50.6582 262.414 50.6909 262.783 50.7492V55.4929Z" fill="white"/>
<path d="M285.031 61.2539C285.031 62.1452 284.973 62.8965 284.849 63.5102H269.925C269.983 65.7222 270.704 67.4139 272.09 68.5805C273.348 69.6235 274.974 70.1462 276.972 70.1462C279.181 70.1462 281.197 69.7939 283.01 69.0869L283.79 72.5402C281.671 73.4642 279.17 73.9239 276.283 73.9239C272.811 73.9239 270.086 72.9019 268.103 70.8602C266.124 68.8185 265.132 66.0769 265.132 62.6375C265.132 59.2612 266.054 56.4495 267.9 54.2072C269.832 51.8132 272.443 50.6162 275.728 50.6162C278.955 50.6162 281.398 51.8132 283.057 54.2072C284.371 56.1089 285.031 58.4609 285.031 61.2539ZM280.287 59.9635C280.32 58.4889 279.996 57.2149 279.321 56.1392C278.46 54.7555 277.137 54.0649 275.357 54.0649C273.731 54.0649 272.408 54.7392 271.397 56.0925C270.569 57.1682 270.077 58.4585 269.925 59.9612L280.287 59.9635Z" fill="white"/>
<path d="M114.45 23.353C114.45 26.0993 113.626 28.1667 111.981 29.555C110.458 30.836 108.292 31.4777 105.488 31.4777C104.097 31.4777 102.907 31.417 101.911 31.2957V16.29C103.21 16.08 104.61 15.9727 106.122 15.9727C108.794 15.9727 110.808 16.5537 112.166 17.7157C113.687 19.0293 114.45 20.9077 114.45 23.353ZM111.872 23.4207C111.872 21.6403 111.4 20.2753 110.458 19.3233C109.515 18.3737 108.138 17.8977 106.325 17.8977C105.555 17.8977 104.9 17.949 104.356 18.0563V29.464C104.657 29.5107 105.208 29.5317 106.008 29.5317C107.879 29.5317 109.324 29.0113 110.341 27.9707C111.358 26.93 111.872 25.4133 111.872 23.4207Z" fill="white"/>
<path d="M128.121 25.7518C128.121 27.4435 127.638 28.8295 126.672 29.9168C125.659 31.0345 124.318 31.5921 122.642 31.5921C121.028 31.5921 119.742 31.0578 118.783 29.9845C117.826 28.9135 117.348 27.5625 117.348 25.9338C117.348 24.2305 117.84 22.8328 118.83 21.7478C119.819 20.6628 121.149 20.1191 122.824 20.1191C124.439 20.1191 125.736 20.6535 126.719 21.7245C127.652 22.7651 128.121 24.1091 128.121 25.7518ZM125.585 25.8311C125.585 24.8161 125.365 23.9458 124.929 23.2201C124.416 22.3428 123.685 21.9041 122.736 21.9041C121.753 21.9041 121.007 22.3428 120.493 23.2201C120.055 23.9458 119.838 24.8301 119.838 25.8755C119.838 26.8905 120.057 27.7608 120.493 28.4865C121.023 29.3638 121.76 29.8025 122.712 29.8025C123.646 29.8025 124.378 29.3568 124.906 28.4631C125.358 27.7235 125.585 26.8461 125.585 25.8311Z" fill="white"/>
<path d="M146.452 20.3438L143.01 31.3431H140.77L139.344 26.5668C138.983 25.3744 138.689 24.1891 138.46 23.0131H138.416C138.203 24.2218 137.909 25.4047 137.531 26.5668L136.017 31.3431H133.751L130.515 20.3438H133.028L134.272 25.5728C134.573 26.8094 134.82 27.9878 135.018 29.1031H135.063C135.245 28.1837 135.546 27.0124 135.97 25.5961L137.531 20.3461H139.524L141.02 25.4841C141.381 26.7371 141.675 27.9434 141.902 29.1054H141.969C142.135 27.9738 142.385 26.7674 142.716 25.4841L144.051 20.3461H146.452V20.3438Z" fill="white"/>
<path d="M159.128 31.3426H156.683V25.0426C156.683 23.1013 155.945 22.1306 154.466 22.1306C153.74 22.1306 153.155 22.3966 152.7 22.931C152.249 23.4653 152.021 24.0953 152.021 24.8163V31.3403H149.575V23.4863C149.575 22.5203 149.545 21.4726 149.487 20.3386H151.636L151.75 22.0583H151.818C152.102 21.524 152.527 21.083 153.085 20.7306C153.747 20.32 154.489 20.1123 155.301 20.1123C156.328 20.1123 157.182 20.4436 157.861 21.1086C158.706 21.923 159.128 23.1386 159.128 24.7533V31.3426Z" fill="white"/>
<path d="M165.872 31.3422H163.429V15.2959H165.872V31.3422Z" fill="white"/>
<path d="M180.268 25.7518C180.268 27.4435 179.785 28.8295 178.819 29.9168C177.807 31.0345 176.463 31.5921 174.79 31.5921C173.173 31.5921 171.887 31.0578 170.93 29.9845C169.974 28.9135 169.495 27.5625 169.495 25.9338C169.495 24.2305 169.988 22.8328 170.977 21.7478C171.966 20.6628 173.296 20.1191 174.969 20.1191C176.586 20.1191 177.881 20.6535 178.866 21.7245C179.799 22.7651 180.268 24.1091 180.268 25.7518ZM177.73 25.8311C177.73 24.8161 177.51 23.9458 177.074 23.2201C176.563 22.3428 175.83 21.9041 174.883 21.9041C173.898 21.9041 173.152 22.3428 172.641 23.2201C172.202 23.9458 171.985 24.8301 171.985 25.8755C171.985 26.8905 172.204 27.7608 172.641 28.4865C173.17 29.3638 173.908 29.8025 174.86 29.8025C175.793 29.8025 176.523 29.3568 177.051 28.4631C177.506 27.7235 177.73 26.8461 177.73 25.8311Z" fill="white"/>
<path d="M192.103 31.3425H189.908L189.726 30.0755H189.658C188.907 31.0858 187.836 31.5921 186.445 31.5921C185.407 31.5921 184.567 31.2585 183.934 30.5958C183.36 29.9938 183.073 29.2448 183.073 28.3558C183.073 27.0118 183.633 25.9875 184.76 25.2781C185.885 24.5688 187.467 24.2211 189.504 24.2375V24.0321C189.504 22.5831 188.743 21.8598 187.22 21.8598C186.135 21.8598 185.178 22.1328 184.352 22.6741L183.855 21.0688C184.877 20.4365 186.139 20.1191 187.628 20.1191C190.503 20.1191 191.945 21.6358 191.945 24.6691V28.7198C191.945 29.8188 191.998 30.6938 192.103 31.3425ZM189.565 27.5625V25.8661C186.867 25.8195 185.519 26.5591 185.519 28.0828C185.519 28.6568 185.673 29.0861 185.988 29.3731C186.303 29.6601 186.704 29.8025 187.182 29.8025C187.719 29.8025 188.221 29.6321 188.678 29.2938C189.138 28.9531 189.42 28.5215 189.525 27.9918C189.551 27.8728 189.565 27.7281 189.565 27.5625Z" fill="white"/>
<path d="M205.998 31.3422H203.828L203.714 29.5759H203.646C202.953 30.9199 201.773 31.5919 200.114 31.5919C198.788 31.5919 197.685 31.0716 196.81 30.0309C195.935 28.9902 195.498 27.6392 195.498 25.9802C195.498 24.1999 195.972 22.7579 196.924 21.6566C197.846 20.6299 198.975 20.1166 200.319 20.1166C201.796 20.1166 202.83 20.6136 203.418 21.6099H203.464V15.2959H205.912V28.3789C205.912 29.4499 205.94 30.4369 205.998 31.3422ZM203.464 26.7036V24.8696C203.464 24.5522 203.441 24.2956 203.397 24.0996C203.259 23.5116 202.963 23.0169 202.512 22.6179C202.057 22.2189 201.509 22.0182 200.877 22.0182C199.964 22.0182 199.25 22.3799 198.725 23.1056C198.205 23.8312 197.941 24.7576 197.941 25.8892C197.941 26.9766 198.191 27.8586 198.693 28.5376C199.222 29.2609 199.936 29.6226 200.83 29.6226C201.633 29.6226 202.274 29.3216 202.762 28.7172C203.233 28.1596 203.464 27.4876 203.464 26.7036Z" fill="white"/>
<path d="M226.912 25.7518C226.912 27.4435 226.429 28.8295 225.463 29.9168C224.45 31.0345 223.111 31.5921 221.434 31.5921C219.821 31.5921 218.536 31.0578 217.574 29.9845C216.618 28.9135 216.139 27.5625 216.139 25.9338C216.139 24.2305 216.631 22.8328 217.621 21.7478C218.61 20.6628 219.94 20.1191 221.618 20.1191C223.23 20.1191 224.53 20.6535 225.51 21.7245C226.443 22.7651 226.912 24.1091 226.912 25.7518ZM224.378 25.8311C224.378 24.8161 224.159 23.9458 223.722 23.2201C223.207 22.3428 222.479 21.9041 221.527 21.9041C220.547 21.9041 219.8 22.3428 219.284 23.2201C218.846 23.9458 218.629 24.8301 218.629 25.8755C218.629 26.8905 218.848 27.7608 219.284 28.4865C219.814 29.3638 220.552 29.8025 221.504 29.8025C222.437 29.8025 223.172 29.3568 223.699 28.4631C224.15 27.7235 224.378 26.8461 224.378 25.8311Z" fill="white"/>
<path d="M240.061 31.3426H237.618V25.0426C237.618 23.1013 236.881 22.1306 235.399 22.1306C234.673 22.1306 234.088 22.3966 233.635 22.931C233.182 23.4653 232.956 24.0953 232.956 24.8163V31.3403H230.508V23.4863C230.508 22.5203 230.48 21.4726 230.422 20.3386H232.569L232.683 22.0583H232.751C233.038 21.524 233.462 21.083 234.018 20.7306C234.683 20.32 235.422 20.1123 236.237 20.1123C237.261 20.1123 238.115 20.4436 238.794 21.1086C239.641 21.923 240.061 23.1386 240.061 24.7533V31.3426Z" fill="white"/>
<path d="M256.517 22.1745H253.825V27.5178C253.825 28.8758 254.303 29.5548 255.25 29.5548C255.689 29.5548 256.053 29.5175 256.34 29.4405L256.403 31.2955C255.92 31.4775 255.285 31.5685 254.504 31.5685C253.538 31.5685 252.786 31.2745 252.243 30.6865C251.697 30.0985 251.426 29.1092 251.426 27.7208V22.1745H249.818V20.3428H251.426V18.3268L253.822 17.6035V20.3405H256.515L256.517 22.1745Z" fill="white"/>
<path d="M269.463 31.3422H267.015V25.0889C267.015 23.1172 266.278 22.1302 264.801 22.1302C263.667 22.1302 262.892 22.7019 262.467 23.8452C262.395 24.0856 262.353 24.3796 262.353 24.7249V31.3399H259.91V15.2959H262.353V21.9249H262.4C263.17 20.7186 264.273 20.1166 265.704 20.1166C266.716 20.1166 267.554 20.4479 268.219 21.1129C269.047 21.9412 269.463 23.1732 269.463 24.8019V31.3422Z" fill="white"/>
<path d="M282.816 25.322C282.816 25.7607 282.783 26.1293 282.725 26.4303H275.391C275.424 27.5177 275.774 28.346 276.453 28.92C277.074 29.4333 277.874 29.69 278.854 29.69C279.939 29.69 280.928 29.5173 281.82 29.1697L282.202 30.8683C281.159 31.321 279.932 31.5473 278.511 31.5473C276.808 31.5473 275.466 31.0457 274.495 30.0423C273.52 29.039 273.037 27.6927 273.037 26.0033C273.037 24.3443 273.487 22.963 274.395 21.8617C275.342 20.6857 276.623 20.0977 278.24 20.0977C279.822 20.0977 281.024 20.6857 281.836 21.8617C282.492 22.795 282.816 23.95 282.816 25.322ZM280.483 24.6897C280.501 23.964 280.34 23.3387 280.009 22.8113C279.584 22.1323 278.938 21.7917 278.063 21.7917C277.265 21.7917 276.614 22.123 276.117 22.788C275.711 23.3177 275.471 23.95 275.391 24.6897H280.483Z" fill="white"/>
</g>
<defs>
<clipPath id="clip0_41_6992">
<rect width="315" height="93.3333" fill="white"/>
</clipPath>
</defs>
</svg>
