<svg width="93" height="92" viewBox="0 0 93 92" fill="none" xmlns="http://www.w3.org/2000/svg">
<rect x="1.29999" y="0.5" width="91" height="91" rx="45.5" fill="white" fill-opacity="0.01"/>
<rect x="1.29999" y="0.5" width="91" height="91" rx="45.5" stroke="#141519"/>
<g clip-path="url(#clip0_41_6956)">
<g clip-path="url(#clip1_41_6956)">
<g clip-path="url(#clip2_41_6956)">
<path d="M35.9067 33.3018C35.2665 33.6714 34.8722 34.3544 34.8722 35.0936C34.8722 36.6859 36.5957 37.6813 37.975 36.8856L45.6957 32.4313C46.3365 32.0616 46.7314 31.378 46.7314 30.6382C46.7314 29.0446 45.0063 28.0486 43.6262 28.8453L35.9067 33.3018Z" fill="url(#paint0_linear_41_6956)"/>
<path d="M47.7628 32.4313C47.1222 32.0616 46.7276 31.3781 46.7276 30.6385C46.7276 29.0449 48.4527 28.0491 49.8327 28.846L57.5482 33.3018C58.1881 33.6714 58.5823 34.3543 58.5823 35.0932C58.5823 36.6856 56.8587 37.6809 55.4795 36.8849L47.7628 32.4313Z" fill="url(#paint1_linear_41_6956)"/>
<path d="M46.8551 31.2957C45.7121 31.2957 44.7855 32.2223 44.7855 33.3654V40.8553C44.7855 42.449 46.511 43.4447 47.8908 42.6472C48.5307 42.2774 48.9248 41.5944 48.9248 40.8553V33.3654C48.9248 32.2223 47.9982 31.2957 46.8551 31.2957Z" fill="url(#paint2_linear_41_6956)"/>
<path d="M39.6203 64.3473C40.2605 64.7167 41.049 64.7168 41.6892 64.3474C43.0691 63.5511 43.0694 61.5596 41.6898 60.7629L35.9043 57.4217C34.0698 56.3622 31.8092 56.3626 29.975 57.4227L28.8 58.1018L39.6203 64.3473Z" fill="white"/>
<path d="M32.9394 52.2907C32.9394 54.4084 31.8093 56.3652 29.975 57.4237L28.8 58.1018V45.6072C28.8 44.8681 29.1941 44.1851 29.834 43.8153C31.2138 43.0178 32.9394 44.0136 32.9394 45.6072V52.2907Z" fill="white"/>
<path d="M32.4094 55.8711C32.9808 56.8607 34.2462 57.1998 35.2359 56.6285L41.7264 52.8822C43.1061 52.0858 43.106 50.0944 41.7262 49.2981C41.0862 48.9288 40.2978 48.9288 39.6578 49.2982L33.1671 53.044C32.177 53.6154 31.8378 54.8812 32.4094 55.8711ZM64.6547 45.6088C64.6547 44.8692 64.2601 44.1858 63.6195 43.8162C62.2397 43.02 60.5154 44.0158 60.5154 45.6088V55.7131C62.3546 56.7762 64.6547 55.4489 64.6547 53.3245V45.6088Z" fill="white"/>
<path d="M60.5154 55.7131C62.3548 56.7747 62.3552 59.4295 60.5161 60.4917L53.8359 64.3498C53.1949 64.72 52.4051 64.7199 51.7643 64.3495C50.3846 63.5521 50.3852 61.5603 51.7653 60.7636L60.5154 55.7131Z" fill="white"/>
<path d="M60.9167 56.0902C61.4883 55.1002 61.1491 53.8344 60.1592 53.2628L53.6739 49.518C52.2938 48.7211 50.5686 49.7171 50.5686 51.3107C50.5686 52.0504 50.9632 52.7338 51.6037 53.1036L58.0894 56.8478C59.0794 57.4193 60.3452 57.0801 60.9167 56.0902Z" fill="white"/>
</g>
</g>
</g>
<defs>
<linearGradient id="paint0_linear_41_6956" x1="56.8389" y1="27.0527" x2="33.9101" y2="29.6624" gradientUnits="userSpaceOnUse">
<stop stop-color="#237249"/>
<stop offset="1" stop-color="#35C66B"/>
</linearGradient>
<linearGradient id="paint1_linear_41_6956" x1="56.8389" y1="27.0527" x2="33.9101" y2="29.6624" gradientUnits="userSpaceOnUse">
<stop stop-color="#237249"/>
<stop offset="1" stop-color="#35C66B"/>
</linearGradient>
<linearGradient id="paint2_linear_41_6956" x1="56.8389" y1="27.0527" x2="33.9101" y2="29.6624" gradientUnits="userSpaceOnUse">
<stop stop-color="#237249"/>
<stop offset="1" stop-color="#35C66B"/>
</linearGradient>
<clipPath id="clip0_41_6956">
<rect width="36" height="42" fill="white" transform="translate(28.8 25)"/>
</clipPath>
<clipPath id="clip1_41_6956">
<rect width="36" height="42" fill="white" transform="translate(28.8 25)"/>
</clipPath>
<clipPath id="clip2_41_6956">
<rect width="36" height="37.8947" fill="white" transform="translate(28.8 27.0527)"/>
</clipPath>
</defs>
</svg>
