<svg width="93" height="92" viewBox="0 0 93 92" fill="none" xmlns="http://www.w3.org/2000/svg">
<rect x="1.29004" y="0.5" width="91" height="91" rx="45.5" stroke="#141519"/>
<g clip-path="url(#clip0_41_6978)">
<g clip-path="url(#clip1_41_6978)">
<g clip-path="url(#clip2_41_6978)">
<path d="M53.5645 39.8357L42.7946 33.6163C42.7946 31.9561 44.5918 30.9185 46.0295 31.7486L53.5636 36.0986C55.0018 36.9289 55.0023 39.0046 53.5645 39.8357ZM42.7946 33.6163L32.0247 39.8357C30.5873 39.0064 30.587 36.9321 32.024 36.1024L39.5619 31.7502C40.9985 30.9208 42.7943 31.9574 42.7946 33.6163Z" fill="white"/>
<path d="M53.5736 52.1487C55.0098 52.981 55.0064 55.0558 53.5676 55.8834L42.7871 62.0842L42.7935 58.3483L53.5736 52.1487Z" fill="url(#paint0_linear_41_6978)"/>
<path d="M48.1458 41.3454C49.2229 41.9694 49.2206 43.5255 48.1415 44.1463L38.981 49.4162C37.9016 50.0372 36.5548 49.2566 36.5569 48.0113C36.5579 47.4335 36.8671 46.9001 37.368 46.612L46.529 41.3429C47.0297 41.0549 47.646 41.0559 48.1458 41.3454ZM42.7871 62.0842L31.2198 55.3808C30.1424 54.7564 30.1447 53.1999 31.224 52.5788C31.7251 52.2904 32.342 52.2913 32.8422 52.5812L42.7935 58.3483L42.7871 62.0842Z" fill="white"/>
<path d="M64.3328 59.3183C64.3306 60.5635 62.9815 61.3394 61.9042 60.7151L53.5679 55.8843C52.1315 55.0519 52.1347 52.9768 53.5736 52.1487L63.5262 57.9159C64.0263 58.2057 64.3338 58.7403 64.3328 59.3183Z" fill="url(#paint1_linear_41_6978)"/>
<path d="M54.3712 49.0036C55.4494 49.6276 56.7986 48.8495 56.7986 47.6038V41.7034C56.7986 40.0437 55.0021 39.0062 53.5645 39.8357L53.564 47.6037C53.564 48.1809 53.8716 48.7144 54.3712 49.0036ZM32.0247 39.8357V51.3371C32.0247 51.9151 31.7162 52.4492 31.2155 52.738C30.1373 53.3601 28.79 52.5819 28.79 51.3371V41.7023C28.79 40.0423 30.5874 39.0051 32.0247 39.8357Z" fill="white"/>
</g>
</g>
</g>
<defs>
<linearGradient id="paint0_linear_41_6978" x1="61.7208" y1="29.8809" x2="27.1949" y2="33.0583" gradientUnits="userSpaceOnUse">
<stop stop-color="#237249"/>
<stop offset="1" stop-color="#35C66B"/>
</linearGradient>
<linearGradient id="paint1_linear_41_6978" x1="61.7208" y1="29.8809" x2="27.1949" y2="33.0583" gradientUnits="userSpaceOnUse">
<stop stop-color="#237249"/>
<stop offset="1" stop-color="#35C66B"/>
</linearGradient>
<clipPath id="clip0_41_6978">
<rect width="36" height="42" fill="white" transform="translate(28.79 25)"/>
</clipPath>
<clipPath id="clip1_41_6978">
<rect width="36" height="42" fill="white" transform="translate(28.79 25)"/>
</clipPath>
<clipPath id="clip2_41_6978">
<rect width="36" height="32.2388" fill="white" transform="translate(28.79 29.8809)"/>
</clipPath>
</defs>
</svg>
