<svg width="93" height="92" viewBox="0 0 93 92" fill="none" xmlns="http://www.w3.org/2000/svg">
<rect x="1.29999" y="0.5" width="91" height="91" rx="45.5" stroke="#141519"/>
<g clip-path="url(#clip0_41_6968)">
<g clip-path="url(#clip1_41_6968)">
<g clip-path="url(#clip2_41_6968)">
<path d="M60.1526 38.2217L46.5229 30.3506C46.5229 28.2495 48.7974 26.9363 50.617 27.9869L60.1515 33.492C61.9717 34.5429 61.9723 37.1699 60.1526 38.2217ZM46.5229 30.3506L32.8931 38.2217L28.8 35.8593L42.4322 27.9888C44.2503 26.9392 46.5229 28.2513 46.5229 30.3506Z" fill="white"/>
<path d="M64.2539 56.1736C64.2539 56.1735 64.2538 56.1735 64.2538 56.1735L46.5147 66.3778L46.5229 61.6502L60.0238 53.886C60.1111 53.8358 60.2185 53.836 60.3056 53.8865L64.2528 56.1742C64.2533 56.1745 64.2539 56.1741 64.2539 56.1736Z" fill="url(#paint0_linear_41_6968)"/>
<path d="M46.5147 66.3778L31.8753 57.8939C30.5121 57.1039 30.5152 55.1344 31.881 54.3487C32.5149 53.9841 33.2951 53.9853 33.9279 54.3519L46.5229 61.6502L46.5147 66.3778Z" fill="url(#paint1_linear_41_6968)"/>
<path d="M61.1739 49.8234C62.5383 50.6132 64.2457 49.6286 64.2457 48.0522V40.5856C64.2457 38.485 61.972 37.1719 60.1526 38.2217V48.0522C60.1526 48.7825 60.5418 49.4575 61.1739 49.8234ZM45.3747 49.8234C46.739 50.6132 48.4465 49.6286 48.4465 48.0522V39.4036C48.4465 37.8284 46.7415 36.8437 45.3771 37.631C44.7436 37.9965 44.3533 38.6723 44.3533 39.4036V48.0522C44.3533 48.7825 44.7426 49.4575 45.3747 49.8234ZM31.8718 49.8234C30.5074 50.6132 28.8 49.6286 28.8 48.0522V35.8593L32.8931 38.2217V48.0522C32.8931 48.7825 32.5039 49.4575 31.8718 49.8234Z" fill="white"/>
</g>
</g>
</g>
<defs>
<linearGradient id="paint0_linear_41_6968" x1="61.647" y1="25.6231" x2="27.0994" y2="28.1317" gradientUnits="userSpaceOnUse">
<stop stop-color="#237249"/>
<stop offset="1" stop-color="#35C66B"/>
</linearGradient>
<linearGradient id="paint1_linear_41_6968" x1="61.647" y1="25.6231" x2="27.0994" y2="28.1317" gradientUnits="userSpaceOnUse">
<stop stop-color="#237249"/>
<stop offset="1" stop-color="#35C66B"/>
</linearGradient>
<clipPath id="clip0_41_6968">
<rect width="36" height="42" fill="white" transform="translate(28.8 25)"/>
</clipPath>
<clipPath id="clip1_41_6968">
<rect width="36" height="42" fill="white" transform="translate(28.8 25)"/>
</clipPath>
<clipPath id="clip2_41_6968">
<rect width="36" height="40.7547" fill="white" transform="translate(28.8 25.623)"/>
</clipPath>
</defs>
</svg>
