<svg width="33" height="35" viewBox="0 0 33 35" fill="none" xmlns="http://www.w3.org/2000/svg">
<path d="M31.4802 19.183C31.4823 19.1789 31.4844 19.1749 31.4864 19.1708C33.293 15.5505 33.4037 12.0255 31.7984 9.24497C30.3683 6.7679 27.7447 5.17593 24.3339 4.68415C22.2025 1.97616 19.5121 0.5 16.6518 0.5C14.1727 0.5 11.8212 1.60902 9.85057 3.66747C7.00982 3.89378 4.66463 5.01503 3.09771 6.93611C1.06864 9.42422 0.614516 12.9216 1.81909 16.7841C1.82041 16.7885 1.82193 16.7927 1.82331 16.7971C1.82129 16.8011 1.81909 16.8052 1.81707 16.8092C0.0105267 20.4295 -0.10023 23.9545 1.50511 26.735C2.93517 29.2122 5.55882 30.8041 8.96963 31.2959C11.101 34.0038 13.7914 35.48 16.6518 35.48C19.1314 35.48 21.4835 34.3705 23.4543 32.3111C26.2939 32.0845 28.6393 30.9645 30.2058 29.0439C32.2349 26.5558 32.689 23.0584 31.4844 19.1959C31.4831 19.1916 31.4816 19.1873 31.4802 19.183ZM30.568 9.95543C31.7484 12.0003 31.8083 14.5685 30.7638 17.2918C30.3505 16.3615 29.8516 15.4435 29.2746 14.5484L28.7567 16.4409C29.2395 17.3085 29.6373 18.1825 29.9463 19.0489C29.4596 19.9395 28.8746 20.8069 28.2023 21.6401C28.3709 20.4527 28.4601 19.2317 28.4601 17.9901C28.4601 14.6956 27.8495 11.3168 26.4919 8.29126C26.195 7.62965 25.8613 6.98434 25.4882 6.36246C27.7913 6.96519 29.5537 8.19877 30.568 9.95543ZM6.26436 17.9901C6.26436 16.0136 6.49678 14.1198 6.92063 12.3694C8.24132 11.1109 9.76984 9.96892 11.4581 8.99419C13.4445 7.84733 15.5208 7.0089 17.5763 6.50349C19.4919 7.31903 21.4119 8.46829 23.2168 9.94029C24.4879 10.9769 25.6138 12.1017 26.5824 13.2743C26.8791 14.7662 27.0391 16.3497 27.0391 17.9901C27.0391 19.9665 26.8067 21.8603 26.3829 23.6106C25.0622 24.8691 23.5337 26.0111 21.8454 26.9858C19.8597 28.1322 17.7842 28.9726 15.7293 29.478C13.8131 28.6625 11.8924 27.5123 10.0868 26.0397H10.0867C8.8156 25.0031 7.68969 23.8783 6.72107 22.7057C6.42444 21.2139 6.26436 19.6304 6.26436 17.9901ZM22.3131 4.52401C21.378 4.50786 20.4214 4.56784 19.454 4.6996L20.6321 5.9996C21.0939 5.9622 21.552 5.94195 22.0044 5.94195C22.3258 5.94195 22.6447 5.95141 22.9602 5.97059C23.1681 5.98327 23.3728 6.00042 23.5747 6.02124C24.4568 7.24347 25.2037 8.69453 25.7754 10.3142C25.2483 9.80462 24.6944 9.31176 24.1148 8.83903C23.453 8.29931 22.7653 7.79128 22.054 7.31869C21.3486 6.85001 20.617 6.43053 19.8773 6.01911C19.3428 5.7218 18.7776 5.46358 18.2127 5.22954C18.0113 5.14603 17.8421 5.07533 17.6959 5.01535C15.9619 4.32179 14.2043 3.87486 12.4874 3.70286C12.3086 3.68501 12.1316 3.67126 11.9556 3.65946C13.3667 2.54824 14.9627 1.92091 16.6518 1.92091C18.7387 1.92091 20.6835 2.87874 22.3131 4.52401ZM4.19884 7.83415C5.26622 6.52544 6.761 5.68588 8.51361 5.29451C8.41168 5.43812 8.31077 5.58363 8.2118 5.73318C7.37217 7.00278 6.6802 8.43328 6.14496 9.97592L7.8989 9.34557C8.58999 7.67678 9.47529 6.21834 10.5045 5.04549C10.6553 5.04001 10.8067 5.0361 10.9598 5.0361C12.3346 5.0361 13.8016 5.25717 15.3009 5.69042C13.7601 6.2143 12.2287 6.90861 10.7476 7.76376C9.74617 8.34189 8.7928 8.9909 7.8696 9.68639C7.20176 10.1895 6.53286 10.7169 5.94685 11.3154C5.83805 11.4226 5.7394 11.5196 5.64996 11.6076C5.64807 11.6148 5.6463 11.6221 5.64435 11.6294C4.55779 12.7027 3.60986 13.8534 2.82586 15.0555C2.2512 12.296 2.65575 9.72628 4.19884 7.83415ZM2.73554 26.0246C1.55506 23.9797 1.49521 21.4116 2.5397 18.6882C3.00347 19.7321 3.57498 20.7605 4.24368 21.7584L4.69592 19.8018C4.14567 18.8482 3.69747 17.8851 3.35732 16.9311C3.84386 16.0405 4.42893 15.1731 5.10116 14.3399C4.93263 15.5274 4.84345 16.7485 4.84345 17.9901C4.84345 18.8499 4.88351 19.7185 4.96312 20.5747C5.25434 23.7067 6.18515 26.9008 7.81533 29.6175C5.51227 29.0148 3.74982 27.7813 2.73554 26.0246ZM10.9886 31.4543C11.0907 31.4561 11.1923 31.4588 11.2948 31.4588C12.1802 31.4588 13.0838 31.3908 13.9965 31.2597L12.799 29.9712C11.9651 30.0447 11.1439 30.0582 10.3433 30.0094C10.1354 29.9968 9.93074 29.9796 9.72878 29.9588C8.84664 28.7365 8.09972 27.2855 7.52803 25.6657C8.05519 26.1753 8.60917 26.6682 9.18881 27.141H9.18868C10.5128 28.2208 11.9122 29.1503 13.3481 29.9134C13.3458 29.9137 13.3434 29.914 13.3411 29.9142C13.9322 30.2227 14.6653 30.5818 15.3694 30.8633C15.6164 30.9621 15.8144 31.0421 15.9766 31.1084C17.5906 31.7201 19.2208 32.1174 20.8161 32.2771C20.995 32.2951 21.1719 32.3087 21.348 32.3205C19.9368 33.4318 18.3408 34.0591 16.6518 34.0591C14.5641 34.0591 12.6187 33.1006 10.9886 31.4543ZM29.1047 28.1459C28.0372 29.4547 26.5423 30.295 24.7893 30.6864C24.8914 30.5425 24.9926 30.3967 25.0917 30.2468C25.9037 29.0191 26.5792 27.6419 27.1069 26.1573L25.3519 26.7587C24.6687 28.3757 23.8024 29.7913 22.7987 30.9349C21.2931 30.9894 19.6659 30.7709 17.9982 30.2886C19.5405 29.7645 21.0735 29.0722 22.5559 28.2162C23.6309 27.5957 24.6453 26.9094 25.5892 26.17C25.5878 26.1734 25.5865 26.177 25.5851 26.1804C26.0897 25.7769 26.6789 25.2803 27.1939 24.7791C27.6154 24.3688 27.8639 24.1327 28.009 23.9973C28.9501 23.026 29.779 21.9958 30.4776 20.9246C31.0523 23.684 30.6478 26.2538 29.1047 28.1459ZM17.2404 11.5722L17.4664 16.3637C17.4797 16.6456 17.7103 16.8684 17.9925 16.8721L21.4003 16.917C21.8209 16.9225 22.0701 17.39 21.8401 17.7423L17.3147 24.6748C17.0247 25.1191 16.3342 24.9137 16.3342 24.3831V19.6467C16.3342 19.352 16.0953 19.1131 15.8006 19.1131H12.169C11.7477 19.1131 11.4921 18.6485 11.7186 18.2933C12.733 16.7019 14.9841 13.1852 16.2661 11.2971C16.5543 10.8728 17.2163 11.0599 17.2404 11.5722Z" fill="url(#paint0_linear_12_1996)"/>
<defs>
<linearGradient id="paint0_linear_12_1996" x1="0.376724" y1="17.99" x2="33.5666" y2="17.99" gradientUnits="userSpaceOnUse">
<stop stop-color="#3005FA"/>
<stop offset="1" stop-color="#FF12FB"/>
</linearGradient>
</defs>
</svg>
