<svg width="50" height="50" viewBox="0 0 50 50" fill="none" xmlns="http://www.w3.org/2000/svg">
<rect width="50" height="50" rx="25" fill="#F3BA2F"/>
<path d="M25.0018 20.143L28.3413 23.4822L30.1631 21.661L25.0018 16.5002L19.8406 21.661L21.6623 23.4822L25.0018 20.143Z" fill="#F1F2F2"/>
<path d="M25.0018 29.857L21.6623 26.5178L19.8406 28.339L25.0018 33.4998L30.1631 28.339L28.3413 26.5178L25.0018 29.857Z" fill="#F1F2F2"/>
<path d="M23.1775 25.0002L24.9991 23.1788L26.8207 25.0002L24.9991 26.8217L23.1775 25.0002Z" fill="#F1F2F2"/>
<path d="M29.8572 25.0012L31.6788 23.1798L33.5003 25.0012L31.6788 26.8226L29.8572 25.0012Z" fill="#F1F2F2"/>
<path d="M16.4998 24.9993L18.3213 23.1778L20.1429 24.9993L18.3213 26.8207L16.4998 24.9993Z" fill="#F1F2F2"/>
</svg>
