<svg width="50" height="50" viewBox="0 0 50 50" fill="none" xmlns="http://www.w3.org/2000/svg">
<rect width="50" height="50" rx="25" fill="#F7931A"/>
<path fill-rule="evenodd" clip-rule="evenodd" d="M23.7085 26.2348L26.4107 25.3539C27.6717 24.9428 28.6963 25.5388 29.0578 26.7495C29.3417 27.6202 29.2058 28.5281 28.5831 29.0632C28.3521 29.2714 27.9715 29.4286 27.6413 29.5363L25.0592 30.378L23.7085 26.2348ZM25.2899 19.6743C25.9281 19.7983 26.3941 20.3107 26.6192 21.0012C26.9716 22.0821 26.5858 23.0382 25.5049 23.3906L23.0429 24.1932L21.8586 20.5603L24.0204 19.8555C24.5007 19.699 24.9407 19.622 25.2899 19.6743ZM28.5568 31.5296C29.0136 32.9308 29.242 33.6314 29.242 33.6314C29.242 33.6314 28.7716 33.7847 27.8308 34.0914L27.1457 31.9897L25.6745 32.4692C26.1313 33.8704 26.3597 34.571 26.3597 34.571C26.3597 34.571 25.8893 34.7243 24.9486 35.031L24.2634 32.9293C22.3819 33.5426 21.4411 33.8493 21.4411 33.8493C21.4411 33.8493 21.2323 33.2088 20.8148 31.9279L21.6855 31.644C22.1358 31.4972 22.3486 31.0292 22.2116 30.6089L19.4417 22.1122C19.2949 21.6618 18.827 21.449 18.4067 21.5861C17.8262 21.7753 17.5359 21.8699 17.5359 21.8699C17.5359 21.8699 17.3271 21.2294 16.9095 19.9483L19.7318 19.0283C19.275 17.6272 19.0467 16.9266 19.0467 16.9266C19.0467 16.9266 19.517 16.7733 20.4578 16.4666L21.1429 18.5683L22.614 18.0887C22.1573 16.6876 21.9289 15.987 21.9289 15.987C21.9289 15.987 22.3993 15.8337 23.3401 15.527L24.035 17.6586C24.7653 17.4538 25.3651 17.3579 26.0139 17.4122C27.4315 17.4814 28.6839 18.3685 29.1929 19.9298C29.6236 21.2509 29.3754 22.5274 28.4505 23.46C30.1781 23.4615 31.3091 24.5874 31.7887 26.0586C32.3753 27.9598 31.5645 29.752 30.2199 30.7218C29.6782 31.0977 29.1573 31.3339 28.5568 31.5296Z" fill="white"/>
</svg>
