<svg width="50" height="50" viewBox="0 0 50 50" fill="none" xmlns="http://www.w3.org/2000/svg">
<rect width="50" height="50" rx="25" fill="#62EABF"/>
<path fill-rule="evenodd" clip-rule="evenodd" d="M18.75 25L25 15V22.3075L18.75 25ZM30.9375 25L25 22.311V15L30.9375 25Z" fill="white"/>
<path fill-rule="evenodd" clip-rule="evenodd" d="M25 29.4517L18.75 25.7017L25 23V29.4517Z" fill="white"/>
<path fill-rule="evenodd" clip-rule="evenodd" d="M25 29.4517L31.25 25.7017L25 23V29.4517Z" fill="white"/>
<path fill-rule="evenodd" clip-rule="evenodd" d="M18.75 26.5625L25 30.1704V35L18.75 26.5625ZM30.9375 26.5625L25 35V30.1704L30.9375 26.5625Z" fill="white"/>
<path fill-rule="evenodd" clip-rule="evenodd" d="M30.9375 25L25 22.311V15L30.9375 25Z" fill="white"/>
<path fill-rule="evenodd" clip-rule="evenodd" d="M30.9375 26.5625L25 30.1699V35L30.9375 26.5625Z" fill="white"/>
</svg>
