<svg width="30" height="30" viewBox="0 0 30 30" fill="none" xmlns="http://www.w3.org/2000/svg">
<rect width="30" height="30" rx="15" fill="#5367FF"/>
<path fill-rule="evenodd" clip-rule="evenodd" d="M11.5335 7.57767C11.3684 7.47411 11.1649 7.47411 10.9998 7.57767L7.26644 9.91908C7.10156 10.0224 7 10.2134 7 10.4201V15C7 15.2068 7.10169 15.3979 7.26674 15.5013L11.0001 17.8392C11.165 17.9425 11.3683 17.9425 11.5332 17.8392L15.6667 16.3636L19 14.3182L21 15.6818V19.0909L18.3333 20.4545L16.3333 19.0909V17.8392C16.3333 17.5196 15.5614 17.3642 15.2669 17.3642C14.9724 17.3642 14.4667 17.6038 14.4667 17.9235V19.5834C14.4667 19.7901 14.5683 19.9812 14.7334 20.0845L18.4668 22.4225C18.6317 22.5258 18.835 22.5258 18.9999 22.4225L22.7332 20.0845C22.8983 19.9812 23 19.7901 23 19.5834V15.0034C23 14.7968 22.8985 14.6058 22.7335 14.5023L19.0002 12.161C18.8351 12.0574 18.6316 12.0574 18.4665 12.161L14.7347 14.5013L14.7334 14.4988L11.6667 15.6818L9 13.6364V10.9091L11 9.54545L13.6667 10.9091V12.2727C13.6667 12.5923 14.4389 12.5763 14.7334 12.5763C15.0279 12.5763 15.5333 12.5923 15.5333 12.2727V10.4201C15.5333 10.2134 15.4318 10.0224 15.2669 9.91908L11.5335 7.57767Z" fill="white"/>
</svg>
