<svg width="50" height="50" viewBox="0 0 50 50" fill="none" xmlns="http://www.w3.org/2000/svg">
<rect width="50" height="50" rx="25" fill="#5367FF"/>
<path d="M31.2742 18.9694C31.2404 18.8871 31.183 18.8166 31.1092 18.7669C31.0354 18.7172 30.9486 18.6904 30.8596 18.6899H28.606C28.5467 18.6896 28.4879 18.701 28.4329 18.7234C28.378 18.7458 28.3281 18.7789 28.286 18.8207L25.3202 21.7909C25.2783 21.8332 25.2285 21.8667 25.1735 21.8896C25.1186 21.9125 25.0597 21.9242 25.0002 21.9242C24.9407 21.9242 24.8818 21.9125 24.8269 21.8896C24.7719 21.8667 24.7221 21.8332 24.6802 21.7909L21.7144 18.8207C21.6723 18.7789 21.6224 18.7458 21.5675 18.7234C21.5126 18.701 21.4537 18.6896 21.3944 18.6899H19.1408C19.0518 18.6904 18.965 18.7172 18.8912 18.7669C18.8174 18.8166 18.76 18.8871 18.7262 18.9694C18.6916 19.0515 18.6822 19.1419 18.6991 19.2294C18.7159 19.3168 18.7583 19.3973 18.8208 19.4607L23.4046 24.0445C23.614 24.2544 23.8627 24.4209 24.1365 24.5345C24.4103 24.6481 24.7038 24.7066 25.0002 24.7066C25.2966 24.7066 25.5901 24.6481 25.8639 24.5345C26.1377 24.4209 26.3864 24.2544 26.5958 24.0445L31.1796 19.4607C31.2421 19.3973 31.2845 19.3168 31.3013 19.2294C31.3182 19.1419 31.3088 19.0515 31.2742 18.9694Z" fill="white"/>
<path d="M31.1796 30.5394L26.5958 25.9555C26.3864 25.7457 26.1377 25.5792 25.8639 25.4655C25.5901 25.3519 25.2966 25.2935 25.0002 25.2935C24.7038 25.2935 24.4103 25.3519 24.1365 25.4655C23.8627 25.5792 23.614 25.7457 23.4046 25.9555L18.8208 30.5394C18.7583 30.6028 18.7159 30.6833 18.6991 30.7707C18.6822 30.8581 18.6916 30.9486 18.7262 31.0307C18.76 31.113 18.8174 31.1834 18.8912 31.2332C18.965 31.2829 19.0518 31.3097 19.1408 31.3101H21.3944C21.4537 31.3105 21.5126 31.2991 21.5675 31.2767C21.6224 31.2542 21.6723 31.2212 21.7144 31.1794L24.6802 28.2092C24.7221 28.1669 24.7719 28.1334 24.8269 28.1105C24.8818 28.0876 24.9407 28.0758 25.0002 28.0758C25.0597 28.0758 25.1186 28.0876 25.1735 28.1105C25.2285 28.1334 25.2783 28.1669 25.3202 28.2092L28.286 31.1794C28.3281 31.2212 28.378 31.2542 28.4329 31.2767C28.4879 31.2991 28.5467 31.3105 28.606 31.3101H30.8596C30.9486 31.3097 31.0354 31.2829 31.1092 31.2332C31.183 31.1834 31.2404 31.113 31.2742 31.0307C31.3088 30.9486 31.3182 30.8581 31.3013 30.7707C31.2845 30.6833 31.2421 30.6028 31.1796 30.5394Z" fill="white"/>
</svg>
